<svg id="_x31__px" height="512" viewBox="0 0 24 24" width="512" xmlns="http://www.w3.org/2000/svg"><g><path d="m12.501 24c-.017 0-.033-.001-.05-.002-.275-.027-.476-.272-.449-.547l.18-1.82c.028-.275.276-.474.547-.448.275.027.476.272.449.547l-.18 1.82c-.026.257-.243.45-.497.45z"/></g><g><path d="m12.951 19.44c-.017 0-.033-.001-.05-.002-.275-.027-.476-.272-.449-.547l.319-3.23c.028-.274.275-.471.547-.448.275.027.476.272.449.547l-.319 3.23c-.026.257-.243.45-.497.45z"/></g><g><path d="m13.541 13.47c-.017 0-.033-.001-.05-.002-.274-.027-.476-.271-.449-.546l.946-9.677c0-.015.001-.03.002-.045.007-.066.01-.133.01-.2 0-1.103-.897-2-2-2s-2 .897-2 2c0 .067.003.134.01.199.001.015.002.031.002.046l.937 9.556c.026.275-.175.52-.449.546-.268.029-.52-.173-.547-.449l-.94-9.6c-.002-.017-.003-.034-.003-.051-.007-.081-.01-.164-.01-.247 0-1.654 1.346-3 3-3s3 1.346 3 3c0 .083-.003.167-.01.248 0 .017-.001.034-.002.051l-.95 9.72c-.025.258-.243.451-.497.451z"/></g><g><path d="m11.039 19.38c-.254 0-.472-.193-.497-.451l-.32-3.27c-.026-.275.175-.52.449-.546.276-.017.52.173.547.449l.32 3.27c.026.275-.175.52-.449.546-.017.001-.033.002-.05.002z"/></g><g><path d="m11.499 24c-.254 0-.472-.193-.497-.452l-.18-1.86c-.026-.274.175-.519.45-.545.256-.024.52.174.546.45l.18 1.86c.026.274-.175.519-.45.545-.016.001-.032.002-.049.002z"/></g><g><path d="m15.732 10.005c-.661 0-1.308-.065-1.943-.196-.271-.055-.444-.319-.39-.59.056-.271.323-.442.591-.39 2.555.522 5.34-.124 8.766-2.037.157-.087.246-.209.245-.336 0-.128-.091-.251-.25-.337l-3.149-1.71c-1.182-.644-2.77-.517-3.777.299l-1.217.998c-.216.174-.529.144-.704-.07-.175-.213-.144-.528.069-.704l1.22-1c1.334-1.079 3.342-1.244 4.887-.402l3.149 1.709c.482.264.771.718.772 1.215.002.496-.282.95-.759 1.213-2.818 1.574-5.254 2.338-7.51 2.338z"/></g><g><path d="m8.268 10.005c-2.256 0-4.691-.764-7.512-2.339-.475-.262-.759-.716-.757-1.212.001-.497.29-.951.772-1.213l3.151-1.71c1.545-.84 3.553-.677 4.883.4l1.223 1.002c.213.175.244.49.069.704-.176.214-.49.243-.704.07l-1.22-1c-1.005-.814-2.593-.939-3.774-.298l-3.151 1.711c-.158.086-.249.209-.249.337-.001.127.088.25.243.335 3.426 1.913 6.21 2.562 8.768 2.038.268-.052.535.118.591.39.055.271-.119.535-.39.59-.636.13-1.282.195-1.943.195z"/></g><g><path d="m17.59 14.99c-.192 0-.376-.112-.458-.3-.11-.253.005-.548.258-.658 1.023-.447 1.61-1.006 1.61-1.532 0-.2-.092-.412-.273-.63-.177-.212-.148-.527.063-.704.213-.175.528-.147.704.064.336.403.506.83.506 1.27 0 .957-.785 1.826-2.21 2.448-.065.029-.133.042-.2.042z"/></g><g><path d="m8.73 21.41c-.062 0-.125-.011-.186-.036-1.593-.637-2.544-1.711-2.544-2.874 0-.499.176-1 .509-1.448.164-.222.478-.267.699-.104.222.165.269.478.104.699-.208.28-.312.566-.312.853 0 .739.716 1.466 1.916 1.946.257.103.381.394.278.65-.078.196-.265.314-.464.314z"/></g><g><path d="m12 22c-.276 0-.5-.224-.5-.5s.224-.5.5-.5c2.71 0 5-1.145 5-2.5s-2.29-2.5-5-2.5c-.452 0-.894-.021-1.325-.051-3.93-.267-6.675-1.686-6.675-3.449 0-.44.17-.867.506-1.27.177-.212.492-.24.704-.064.212.177.24.492.063.704-.181.218-.273.43-.273.63 0 .991 2.196 2.21 5.744 2.451.409.029.827.049 1.256.049 3.364 0 6 1.538 6 3.5s-2.636 3.5-6 3.5z"/></g></svg>